<svg width="17" height="19" viewBox="0 0 17 19" fill="none" xmlns="http://www.w3.org/2000/svg">
<path d="M15.4566 7.6915L2.32691 0.199307C2.05008 0.0442366 1.7326 -0.0228768 1.41669 0.00689358C1.10079 0.0366639 0.801438 0.161907 0.558452 0.365964C0.315466 0.570021 0.140365 0.84322 0.0564393 1.14922C-0.0274868 1.45523 -0.0162599 1.77953 0.0886264 2.07899L2.44644 9.06025L0.0886264 16.0415C0.00573257 16.277 -0.0195136 16.529 0.0150028 16.7763C0.0495192 17.0235 0.142793 17.2589 0.28701 17.4628C0.431228 17.6666 0.622189 17.8329 0.843897 17.9477C1.0656 18.0625 1.3116 18.1226 1.56128 18.1227C1.82978 18.1222 2.09365 18.0528 2.32769 17.9212L2.33472 17.9165L15.4597 10.411C15.7004 10.2748 15.9006 10.0772 16.0398 9.83826C16.1791 9.59937 16.2525 9.32779 16.2525 9.05126C16.2525 8.77473 16.1791 8.50315 16.0398 8.26426C15.9006 8.02537 15.7004 7.82772 15.4597 7.6915H15.4566ZM2.123 15.8774L4.10894 9.99775H8.43628C8.68492 9.99775 8.92338 9.89897 9.09919 9.72316C9.27501 9.54734 9.37378 9.30889 9.37378 9.06025C9.37378 8.8116 9.27501 8.57315 9.09919 8.39733C8.92338 8.22152 8.68492 8.12275 8.43628 8.12275H4.10894L2.12222 2.24149L14.0566 9.05165L2.123 15.8774Z" fill="white"/>
</svg>
