<svg width="686" height="136" viewBox="0 0 686 136" fill="none" xmlns="http://www.w3.org/2000/svg">
<path d="M62.1747 0C60.2928 3.36187 58.4762 7.72992 58.0883 12.5831C57.7112 17.3027 58.6695 20.9928 60.5015 24.1972C62.1856 27.1429 64.6149 29.6145 66.5304 31.7105C70.3734 35.9156 74.4708 40.8348 75.8487 51.8571C77.2103 62.7488 76.2302 70.5108 74.351 76.3483C72.4714 82.1867 69.6035 86.3923 66.7003 90.1587C65.3213 91.9477 63.6724 93.9611 62.3748 95.7506C61.0186 97.6208 59.7028 99.6894 58.826 102.024C56.918 107.106 57.4505 112.436 60.9329 118.741C61.0986 119.041 61.2783 119.341 61.4672 119.644C56.5593 118.948 51.8166 117.859 47.2913 116.409C42.1025 122.207 37.093 126.365 30.6777 129.322C23.9124 132.44 14.3527 134.3 2.55458 135.315C1.64707 135.394 1.12582 134.312 1.74033 133.639C7.0119 127.871 11.3531 122.424 13.7333 117.773C16.3635 112.632 17.6116 107.365 18.0163 100.471V99.3203C6.59481 88.6396 0.274956 75.209 0.274956 59.8733C0.274956 29.707 27.0729 4.6835 62.1747 0Z" fill="url(#paint0_radial_5008_5382)"/>
<path d="M75.8482 0.572266C116.619 0.572266 146 27.7298 146 61.2315C146 92.7931 116.666 118.724 79.1782 121.621C74.7242 121.966 70.1368 120.345 67.6306 116.647C67.4023 116.31 67.2003 115.984 67.0283 115.673C64.529 111.148 64.7178 108.629 65.4792 106.601C65.9372 105.382 66.7104 104.08 67.8677 102.484C69.0837 100.807 70.3747 99.257 72.0323 97.1066C75.2024 92.9939 78.797 87.8125 81.1472 80.512C83.4979 73.2098 84.5149 64.0787 83.0149 52.0797C81.3167 38.4949 75.9328 31.8844 71.3695 26.8911C69.0821 24.3881 67.5779 22.842 66.531 21.0108C65.632 19.4385 65.0624 17.5913 65.2959 14.6701C65.5981 10.8898 67.3202 7.19027 69.1777 4.26536C68.525 5.06167 70.0841 2.83806 69.1777 4.26536C69.1976 4.24108 69.3356 4.05347 69.5398 3.77453C71.0254 1.74426 73.3324 0.572266 75.8482 0.572266Z" fill="url(#paint1_radial_5008_5382)"/>
<circle cx="41.6274" cy="50.3608" r="7.8598" fill="url(#paint2_radial_5008_5382)"/>
<circle cx="105.089" cy="50.3608" r="7.8598" fill="url(#paint3_radial_5008_5382)"/>
<path d="M172.6 108.76V34.2598H201.1C206.233 34.2598 210.767 35.1598 214.7 36.9598C218.7 38.7598 221.833 41.4264 224.1 44.9598C226.367 48.4931 227.5 52.8598 227.5 58.0598C227.5 63.1264 226.333 67.4598 224 71.0598C221.667 74.5931 218.533 77.2598 214.6 79.0598L231.6 108.76H214.2L195.8 75.8598L205.8 81.7598H188.1V108.76H172.6ZM188.1 68.2598H201.2C203.4 68.2598 205.3 67.8264 206.9 66.9598C208.5 66.0931 209.733 64.8931 210.6 63.3598C211.533 61.8264 212 60.0598 212 58.0598C212 55.9931 211.533 54.1931 210.6 52.6598C209.733 51.1264 208.5 49.9264 206.9 49.0598C205.3 48.1931 203.4 47.7598 201.2 47.7598H188.1V68.2598ZM260.172 109.96C254.372 109.96 249.339 108.693 245.072 106.16C240.805 103.56 237.505 100.093 235.172 95.7598C232.839 91.4264 231.672 86.6264 231.672 81.3598C231.672 75.8931 232.872 71.0264 235.272 66.7598C237.739 62.4931 241.039 59.1264 245.172 56.6598C249.305 54.1931 253.972 52.9598 259.172 52.9598C263.505 52.9598 267.339 53.6598 270.672 55.0598C274.005 56.3931 276.805 58.2931 279.072 60.7598C281.405 63.2264 283.172 66.0931 284.372 69.3598C285.572 72.5598 286.172 76.0598 286.172 79.8598C286.172 80.9264 286.105 81.9931 285.972 83.0598C285.905 84.0598 285.739 84.9264 285.472 85.6598H244.572V74.6598H276.972L269.872 79.8598C270.539 76.9931 270.505 74.4598 269.772 72.2598C269.039 69.9931 267.739 68.2264 265.872 66.9598C264.072 65.6264 261.839 64.9598 259.172 64.9598C256.572 64.9598 254.339 65.5931 252.472 66.8598C250.605 68.1264 249.205 69.9931 248.272 72.4598C247.339 74.9264 246.972 77.9264 247.172 81.4598C246.905 84.5264 247.272 87.2264 248.272 89.5598C249.272 91.8931 250.805 93.7264 252.872 95.0598C254.939 96.3264 257.439 96.9598 260.372 96.9598C263.039 96.9598 265.305 96.4264 267.172 95.3598C269.105 94.2931 270.605 92.8264 271.672 90.9598L283.672 96.6598C282.605 99.3264 280.905 101.66 278.572 103.66C276.305 105.66 273.605 107.226 270.472 108.36C267.339 109.426 263.905 109.96 260.172 109.96ZM300.305 108.76V67.1598H291.105V54.1598H300.305V53.3598C300.305 49.0264 301.138 45.3598 302.805 42.3598C304.538 39.3598 307.005 37.0598 310.205 35.4598C313.405 33.8598 317.271 33.0598 321.805 33.0598C322.671 33.0598 323.605 33.1264 324.605 33.2598C325.605 33.3264 326.438 33.4264 327.105 33.5598V46.3598C326.438 46.2264 325.838 46.1598 325.305 46.1598C324.838 46.0931 324.338 46.0598 323.805 46.0598C321.005 46.0598 318.871 46.6931 317.405 47.9598C316.005 49.1598 315.305 50.9598 315.305 53.3598V54.1598H337.005V67.1598H315.305V108.76H300.305ZM334.705 108.76V33.0598H349.705V108.76H334.705ZM385.697 109.96C379.897 109.96 374.864 108.693 370.597 106.16C366.33 103.56 363.03 100.093 360.697 95.7598C358.364 91.4264 357.197 86.6264 357.197 81.3598C357.197 75.8931 358.397 71.0264 360.797 66.7598C363.264 62.4931 366.564 59.1264 370.697 56.6598C374.83 54.1931 379.497 52.9598 384.697 52.9598C389.03 52.9598 392.864 53.6598 396.197 55.0598C399.53 56.3931 402.33 58.2931 404.597 60.7598C406.93 63.2264 408.697 66.0931 409.897 69.3598C411.097 72.5598 411.697 76.0598 411.697 79.8598C411.697 80.9264 411.63 81.9931 411.497 83.0598C411.43 84.0598 411.264 84.9264 410.997 85.6598H370.097V74.6598H402.497L395.397 79.8598C396.064 76.9931 396.03 74.4598 395.297 72.2598C394.564 69.9931 393.264 68.2264 391.397 66.9598C389.597 65.6264 387.364 64.9598 384.697 64.9598C382.097 64.9598 379.864 65.5931 377.997 66.8598C376.13 68.1264 374.73 69.9931 373.797 72.4598C372.864 74.9264 372.497 77.9264 372.697 81.4598C372.43 84.5264 372.797 87.2264 373.797 89.5598C374.797 91.8931 376.33 93.7264 378.397 95.0598C380.464 96.3264 382.964 96.9598 385.897 96.9598C388.564 96.9598 390.83 96.4264 392.697 95.3598C394.63 94.2931 396.13 92.8264 397.197 90.9598L409.197 96.6598C408.13 99.3264 406.43 101.66 404.097 103.66C401.83 105.66 399.13 107.226 395.997 108.36C392.864 109.426 389.43 109.96 385.697 109.96ZM446.03 109.96C440.563 109.96 435.63 108.726 431.23 106.26C426.896 103.726 423.43 100.293 420.83 95.9598C418.296 91.6264 417.03 86.7598 417.03 81.3598C417.03 75.9598 418.296 71.1264 420.83 66.8598C423.363 62.5264 426.83 59.1264 431.23 56.6598C435.63 54.1931 440.563 52.9598 446.03 52.9598C450.096 52.9598 453.863 53.6598 457.33 55.0598C460.796 56.4598 463.763 58.4264 466.23 60.9598C468.696 63.4264 470.463 66.3598 471.53 69.7598L458.53 75.3598C457.596 72.6264 455.996 70.4598 453.73 68.8598C451.53 67.2598 448.963 66.4598 446.03 66.4598C443.43 66.4598 441.096 67.0931 439.03 68.3598C437.03 69.6264 435.43 71.3931 434.23 73.6598C433.096 75.9264 432.53 78.5264 432.53 81.4598C432.53 84.3931 433.096 86.9931 434.23 89.2598C435.43 91.5264 437.03 93.2931 439.03 94.5598C441.096 95.8264 443.43 96.4598 446.03 96.4598C449.03 96.4598 451.63 95.6598 453.83 94.0598C456.03 92.4598 457.596 90.2931 458.53 87.5598L471.53 93.2598C470.53 96.4598 468.796 99.3264 466.33 101.86C463.863 104.393 460.896 106.393 457.43 107.86C453.963 109.26 450.163 109.96 446.03 109.96ZM505.363 109.36C498.763 109.36 493.629 107.593 489.963 104.06C486.363 100.46 484.563 95.4598 484.563 89.0598V67.1598H475.363V54.1598H475.863C478.663 54.1598 480.796 53.4598 482.263 52.0598C483.796 50.6598 484.563 48.5598 484.563 45.7598V41.7598H499.563V54.1598H512.363V67.1598H499.563V88.0598C499.563 89.9264 499.896 91.4931 500.563 92.7598C501.229 93.9598 502.263 94.8598 503.663 95.4598C505.063 96.0598 506.796 96.3598 508.863 96.3598C509.329 96.3598 509.863 96.3264 510.463 96.2598C511.063 96.1931 511.696 96.1264 512.363 96.0598V108.76C511.363 108.893 510.229 109.026 508.963 109.16C507.696 109.293 506.496 109.36 505.363 109.36ZM550.452 109.96C546.719 109.96 543.252 109.293 540.052 107.96C536.919 106.56 534.386 104.526 532.452 101.86L533.852 98.7598V108.76H519.852V33.0598H534.852V64.5598L532.552 61.5598C534.352 58.8264 536.786 56.7264 539.852 55.2598C542.986 53.7264 546.552 52.9598 550.552 52.9598C555.752 52.9598 560.452 54.2264 564.652 56.7598C568.852 59.2931 572.186 62.7264 574.652 67.0598C577.119 71.3264 578.352 76.1264 578.352 81.4598C578.352 86.7264 577.119 91.5264 574.652 95.8598C572.252 100.193 568.952 103.626 564.752 106.16C560.552 108.693 555.786 109.96 550.452 109.96ZM548.652 96.4598C551.452 96.4598 553.919 95.8264 556.052 94.5598C558.186 93.2931 559.852 91.5264 561.052 89.2598C562.252 86.9931 562.852 84.3931 562.852 81.4598C562.852 78.5264 562.252 75.9598 561.052 73.7598C559.852 71.4931 558.186 69.7264 556.052 68.4598C553.919 67.1264 551.452 66.4598 548.652 66.4598C545.986 66.4598 543.586 67.0931 541.452 68.3598C539.386 69.6264 537.752 71.3931 536.552 73.6598C535.419 75.9264 534.852 78.5264 534.852 81.4598C534.852 84.3931 535.419 86.9931 536.552 89.2598C537.752 91.5264 539.386 93.2931 541.452 94.5598C543.586 95.8264 545.986 96.4598 548.652 96.4598ZM612.937 109.96C607.537 109.96 602.604 108.726 598.137 106.26C593.737 103.793 590.204 100.426 587.537 96.1598C584.937 91.8264 583.637 86.9264 583.637 81.4598C583.637 75.9264 584.937 71.0264 587.537 66.7598C590.204 62.4931 593.737 59.1264 598.137 56.6598C602.604 54.1931 607.537 52.9598 612.937 52.9598C618.337 52.9598 623.237 54.1931 627.637 56.6598C632.037 59.1264 635.537 62.4931 638.137 66.7598C640.804 71.0264 642.137 75.9264 642.137 81.4598C642.137 86.9264 640.804 91.8264 638.137 96.1598C635.537 100.426 632.037 103.793 627.637 106.26C623.237 108.726 618.337 109.96 612.937 109.96ZM612.937 96.4598C615.671 96.4598 618.037 95.8264 620.037 94.5598C622.104 93.2931 623.704 91.5264 624.837 89.2598C626.037 86.9931 626.637 84.3931 626.637 81.4598C626.637 78.5264 626.037 75.9598 624.837 73.7598C623.704 71.4931 622.104 69.7264 620.037 68.4598C618.037 67.1264 615.671 66.4598 612.937 66.4598C610.204 66.4598 607.804 67.1264 605.737 68.4598C603.671 69.7264 602.037 71.4931 600.837 73.7598C599.704 75.9598 599.137 78.5264 599.137 81.4598C599.137 84.3931 599.704 86.9931 600.837 89.2598C602.037 91.5264 603.671 93.2931 605.737 94.5598C607.804 95.8264 610.204 96.4598 612.937 96.4598ZM674.998 109.36C668.398 109.36 663.264 107.593 659.598 104.06C655.998 100.46 654.198 95.4598 654.198 89.0598V67.1598H644.998V54.1598H645.498C648.298 54.1598 650.431 53.4598 651.898 52.0598C653.431 50.6598 654.198 48.5598 654.198 45.7598V41.7598H669.198V54.1598H681.998V67.1598H669.198V88.0598C669.198 89.9264 669.531 91.4931 670.198 92.7598C670.864 93.9598 671.898 94.8598 673.298 95.4598C674.698 96.0598 676.431 96.3598 678.498 96.3598C678.964 96.3598 679.498 96.3264 680.098 96.2598C680.698 96.1931 681.331 96.1264 681.998 96.0598V108.76C680.998 108.893 679.864 109.026 678.598 109.16C677.331 109.293 676.131 109.36 674.998 109.36Z" fill="#1E293B"/>
<defs>
<radialGradient id="paint0_radial_5008_5382" cx="0" cy="0" r="1" gradientUnits="userSpaceOnUse" gradientTransform="translate(38.4257 6.11318) rotate(105.624) scale(142.673 80.5208)">
<stop stop-color="#8ACEF8"/>
<stop offset="0.727691" stop-color="#8AB1FE"/>
<stop offset="1" stop-color="#E1F1FD"/>
</radialGradient>
<radialGradient id="paint1_radial_5008_5382" cx="0" cy="0" r="1" gradientUnits="userSpaceOnUse" gradientTransform="translate(73.6487 -20.3772) rotate(79.1182) scale(168.078 112.254)">
<stop stop-color="#99BDEB"/>
<stop offset="0.555074" stop-color="#596373"/>
<stop offset="0.713084" stop-color="#3C3D4A"/>
<stop offset="0.880118" stop-color="#8B8DB1"/>
</radialGradient>
<radialGradient id="paint2_radial_5008_5382" cx="0" cy="0" r="1" gradientUnits="userSpaceOnUse" gradientTransform="translate(45.1206 42.501) rotate(98.455) scale(21.7784)">
<stop stop-color="#ECEFFF"/>
<stop offset="1" stop-color="#C1F3FF"/>
</radialGradient>
<radialGradient id="paint3_radial_5008_5382" cx="0" cy="0" r="1" gradientUnits="userSpaceOnUse" gradientTransform="translate(105.38 45.9942) rotate(76.4428) scale(42.2221)">
<stop stop-color="#E1E9FF"/>
<stop offset="1" stop-color="#646571"/>
</radialGradient>
</defs>
</svg>
