<svg width="350" height="350" viewBox="0 0 350 350" fill="none" xmlns="http://www.w3.org/2000/svg">
<path d="M156.791 59C153.559 64.7744 150.439 72.2769 149.773 80.6128C149.125 88.7192 150.771 95.0573 153.917 100.561C156.81 105.621 160.983 109.866 164.273 113.466C170.873 120.689 177.911 129.138 180.278 148.07C182.616 166.777 180.933 180.109 177.705 190.136C174.477 200.164 169.551 207.387 164.564 213.857C162.196 216.929 159.364 220.388 157.135 223.461C154.806 226.674 152.546 230.227 151.04 234.237C147.762 242.965 148.677 252.12 154.658 262.949C154.943 263.464 155.252 263.981 155.576 264.5C147.146 263.305 139 261.435 131.228 258.944C122.315 268.904 113.711 276.045 102.692 281.124C90.724 286.639 73.6643 289.863 52.5565 291.571C51.6486 291.644 51.1273 290.561 51.7454 289.892C61.3592 279.485 69.3143 269.639 73.5883 261.287C78.106 252.457 80.2496 243.411 80.9448 231.568V229.593C61.3272 211.247 50.4723 188.179 50.4723 161.838C50.4723 110.025 96.5004 67.0444 156.791 59Z" fill="url(#paint0_radial_5008_4191)"/>
<path d="M180.278 59.9829C250.306 59.9829 300.771 106.629 300.771 164.171C300.771 219.776 247.761 265.205 181.001 268.202C176.539 268.402 172.164 266.671 169.24 263.294C167.488 261.271 166.055 259.357 165.129 257.68C160.836 249.908 161.16 245.582 162.468 242.099C163.255 240.004 164.583 237.768 166.571 235.026C168.659 232.146 170.877 229.484 173.724 225.79C179.169 218.726 185.343 209.827 189.38 197.287C193.417 184.745 195.164 169.062 192.587 148.452C189.671 125.119 180.423 113.765 172.585 105.188C168.656 100.889 166.073 98.2333 164.275 95.0882C162.731 92.3876 161.752 89.2148 162.153 84.1973C162.672 77.7043 165.63 71.35 168.821 66.3262C167.7 67.6939 170.378 63.8746 168.821 66.3262C168.855 66.2845 169.092 65.9622 169.443 65.4831C171.994 61.9959 175.957 59.9829 180.278 59.9829Z" fill="url(#paint1_radial_5008_4191)"/>
<circle cx="121.5" cy="145.5" r="13.5" fill="url(#paint2_radial_5008_4191)"/>
<circle cx="230.5" cy="145.5" r="13.5" fill="url(#paint3_radial_5008_4191)"/>
<defs>
<radialGradient id="paint0_radial_5008_4191" cx="0" cy="0" r="1" gradientUnits="userSpaceOnUse" gradientTransform="translate(116 69.5) rotate(105.624) scale(245.055 138.303)">
<stop stop-color="#8ACEF8"/>
<stop offset="0.727691" stop-color="#8AB1FE"/>
<stop offset="1" stop-color="#E1F1FD"/>
</radialGradient>
<radialGradient id="paint1_radial_5008_4191" cx="0" cy="0" r="1" gradientUnits="userSpaceOnUse" gradientTransform="translate(176.5 24) rotate(79.1182) scale(288.691 192.808)">
<stop stop-color="#99BDEB"/>
<stop offset="0.555074" stop-color="#596373"/>
<stop offset="0.713084" stop-color="#3C3D4A"/>
<stop offset="0.880118" stop-color="#8B8DB1"/>
</radialGradient>
<radialGradient id="paint2_radial_5008_4191" cx="0" cy="0" r="1" gradientUnits="userSpaceOnUse" gradientTransform="translate(127.5 132) rotate(98.455) scale(37.4065)">
<stop stop-color="#ECEFFF"/>
<stop offset="1" stop-color="#C1F3FF"/>
</radialGradient>
<radialGradient id="paint3_radial_5008_4191" cx="0" cy="0" r="1" gradientUnits="userSpaceOnUse" gradientTransform="translate(231 138) rotate(76.4428) scale(72.5207)">
<stop stop-color="#E1E9FF"/>
<stop offset="1" stop-color="#646571"/>
</radialGradient>
</defs>
</svg>
