<svg width="24" height="24" viewBox="0 0 24 24" fill="none" xmlns="http://www.w3.org/2000/svg">
<path d="M11.9998 1.91895C13.4853 1.91895 14.9333 2.38634 16.1384 3.25488C17.3436 4.1235 18.2448 5.34948 18.7146 6.75879C19.1844 8.16805 19.1995 9.68949 18.7566 11.1074C18.3137 12.5254 17.4352 13.7678 16.2468 14.6592L16.1804 14.709L16.2576 14.7402C18.6529 15.7127 20.6512 17.463 21.9314 19.709V19.71C22.0633 19.9566 22.0949 20.2447 22.0183 20.5137C21.9416 20.7828 21.7626 21.0114 21.5203 21.1514C21.2779 21.2913 20.991 21.3316 20.7195 21.2637C20.4482 21.1958 20.214 21.0254 20.0662 20.7881H20.0652C18.3581 17.8393 15.3436 16.0781 11.9998 16.0781C8.65554 16.0782 5.64024 17.8387 3.93335 20.7891L3.93237 20.79C3.86417 20.9175 3.77145 21.0304 3.65894 21.1211C3.54652 21.2117 3.41692 21.2787 3.27808 21.3184C3.13909 21.358 2.9928 21.3693 2.84937 21.3516C2.70613 21.3338 2.5681 21.287 2.44312 21.2148C2.31807 21.1426 2.20881 21.0459 2.12183 20.9307C2.03481 20.8153 1.97137 20.6832 1.93628 20.543C1.90125 20.4029 1.89437 20.2569 1.91675 20.1143C1.93915 19.9715 1.99084 19.8346 2.06714 19.7119V19.7109C3.34728 17.4642 5.34697 15.7129 7.74292 14.7402L7.81909 14.709L7.75269 14.6592C6.56446 13.7679 5.68679 12.5252 5.2439 11.1074C4.80098 9.68947 4.81516 8.16808 5.28491 6.75879C5.75468 5.34949 6.65598 4.12351 7.86108 3.25488C9.06618 2.3863 10.5143 1.91899 11.9998 1.91895ZM12.9597 4.17285C12.0052 3.98307 11.0161 4.08074 10.1169 4.45312C9.2176 4.82564 8.44878 5.45625 7.90796 6.26562C7.36714 7.07502 7.07788 8.02655 7.07788 9C7.0794 10.3048 7.59859 11.5558 8.52124 12.4785C9.4439 13.4012 10.6949 13.9203 11.9998 13.9219C12.9732 13.9219 13.9247 13.6326 14.7341 13.0918C15.5435 12.551 16.1751 11.7831 16.5476 10.8838C16.9201 9.98452 17.0167 8.9947 16.8269 8.04004C16.637 7.08529 16.1686 6.20787 15.4802 5.51953C14.7919 4.83122 13.9144 4.36276 12.9597 4.17285Z" fill="#475569" stroke="#475569" stroke-width="0.09375"/>
</svg>
